<?xml version="1.0" encoding="utf-8"?>
<!-- Generator: Adobe Illustrator 26.0.2, SVG Export Plug-In . SVG Version: 6.00 Build 0)  -->
<svg version="1.1" id="Layer_1" xmlns="http://www.w3.org/2000/svg" xmlns:xlink="http://www.w3.org/1999/xlink" x="0px" y="0px"
	 viewBox="0 0 595.3 841.9" style="enable-background:new 0 0 595.3 841.9;" xml:space="preserve">
<style type="text/css">
	.st0{fill:#FFFFFF;stroke:#000000;stroke-width:2.8346;stroke-miterlimit:10;}
	.st1{fill:none;stroke:#000000;stroke-width:0.5669;stroke-miterlimit:10;}
	.st2{fill:none;stroke:#000000;stroke-width:0.5669;stroke-miterlimit:10;stroke-dasharray:2.8251,2.8251;}
	.st3{fill-rule:evenodd;clip-rule:evenodd;fill:#020203;}
	.st4{font-family:'ArialMT';}
	.st5{font-size:12px;}
	.st6{fill:none;stroke:#000000;stroke-width:0.396;stroke-linecap:round;stroke-linejoin:round;}
	.st7{fill:none;}
	.st8{font-family:'Arial-BoldMT';}
	.st9{fill:none;stroke:#000000;stroke-miterlimit:10;}
	.st10{fill-rule:evenodd;clip-rule:evenodd;fill:#FFFFFF;}
	.st11{fill:#1B1B1B;}
	.st12{fill:#FFFFFF;}
	.st13{fill:#010202;}
	.st14{font-family:'Roboto-Regular';}
	.st15{font-size:8.5039px;}
	.st16{font-family:'Roboto-Bold';}
	.st17{font-size:14.1732px;}
</style>
<circle class="st0" cx="283.5" cy="337.5" r="7.1"/>
<circle class="st0" cx="311.8" cy="337.4" r="7.1"/>
<g>
	<path d="M233.4,33c33.8,0,61.3,27.5,61.3,61.3v38.4c0,33.8-27.5,61.3-61.3,61.3H28.5V33H233.4 M233.4,30H25.5v167h207.9
		c35.5,0,64.3-28.8,64.3-64.3V94.3C297.6,58.8,268.9,30,233.4,30L233.4,30z"/>
</g>
<g>
	<path d="M566.8,33V194H361.9c-33.8,0-61.3-27.5-61.3-61.3V94.3c0-33.8,27.5-61.3,61.3-61.3H566.8 M569.8,30H361.9
		c-35.5,0-64.3,28.8-64.3,64.3v38.5c0,35.5,28.8,64.3,64.3,64.3h207.9V30L569.8,30z"/>
</g>
<g>
	<path d="M233.4,256.9c33.8,0,61.3,27.5,61.3,61.3v38.4c0,33.8-27.5,61.3-61.3,61.3H28.5V256.9H233.4 M233.4,254H25.5v167h207.9
		c35.5,0,64.3-28.8,64.3-64.3v-38.4C297.6,282.7,268.9,254,233.4,254L233.4,254z"/>
</g>
<g>
	<path d="M566.8,256.9V418H361.9c-33.8,0-61.3-27.5-61.3-61.3v-38.5c0-33.8,27.5-61.3,61.3-61.3H566.8 M569.8,254H361.9
		c-35.5,0-64.3,28.8-64.3,64.3v38.5c0,35.5,28.8,64.3,64.3,64.3h207.9V254L569.8,254z"/>
</g>
<circle class="st0" cx="283.5" cy="504.4" r="7.1"/>
<circle class="st0" cx="311.8" cy="504.4" r="7.1"/>
<circle class="st0" cx="283.5" cy="728.4" r="7.1"/>
<circle class="st0" cx="311.8" cy="728.4" r="7.1"/>
<g>
	<path d="M233.4,423.9c33.8,0,61.3,27.5,61.3,61.3v38.4c0,33.8-27.5,61.3-61.3,61.3H28.5v-161H233.4 M233.4,420.9H25.5v167h207.9
		c35.5,0,64.3-28.8,64.3-64.3v-38.4C297.6,449.7,268.9,420.9,233.4,420.9L233.4,420.9z"/>
</g>
<g>
	<path d="M566.8,423.9V585H361.9c-33.8,0-61.3-27.5-61.3-61.3v-38.5c0-33.8,27.5-61.3,61.3-61.3H566.8 M569.8,420.9H361.9
		c-35.5,0-64.3,28.8-64.3,64.3v38.5c0,35.5,28.8,64.3,64.3,64.3h207.9V420.9L569.8,420.9z"/>
</g>
<g>
	<path d="M233.4,648.7c33.8,0,61.3,27.5,61.3,61.3v38.4c0,33.8-27.5,61.3-61.3,61.3H28.5V648.7H233.4 M233.4,645.7H25.5v167h207.9
		c35.5,0,64.3-28.8,64.3-64.3V710C297.6,674.5,268.9,645.7,233.4,645.7L233.4,645.7z"/>
</g>
<g>
	<path d="M566.8,647.9v161.1H361.9c-33.8,0-61.3-27.5-61.3-61.3v-38.5c0-33.8,27.5-61.3,61.3-61.3H566.8 M569.8,644.9H361.9
		c-35.5,0-64.3,28.8-64.3,64.3v38.5c0,35.5,28.8,64.3,64.3,64.3h207.9V644.9L569.8,644.9z"/>
</g>
<g>
	<g>
		<line class="st1" x1="297.6" y1="0" x2="297.6" y2="1.4"/>
		<line class="st2" x1="297.6" y1="4.2" x2="297.6" y2="839.1"/>
		<line class="st1" x1="297.6" y1="840.5" x2="297.6" y2="841.9"/>
	</g>
</g>
<g>
	<path class="st3" d="M36.3,206C36.3,206,36.4,206,36.3,206c0.1,0.1,0.2,0.2,0.1,0.2v13.5c0,0.1-0.1,0.3-0.3,0.3H29
		c-0.1,0-0.3-0.1-0.3-0.3v-13.5c0-0.1,0.1-0.3,0.3-0.3h0.8v-2.9c0-0.2,0.2-0.3,0.4-0.2L36.3,206z M30.3,203.5v2.4h4.9L30.3,203.5z
		 M29.2,206.5v13H36v-13H29.2z"/>
</g>
<text transform="matrix(1 0 0 1 64.3643 218.1511)" class="st4 st5">Ortasından dışa katlayın.</text>
<text transform="matrix(1 0 0 1 64.3643 241.6239)" class="st4 st5">Deliklerden bir paket lastiği ya da ip geçirin.</text>
<text transform="matrix(1 0 0 1 251.4591 218.1511)" class="st4 st5">Delgeçle delin.</text>
<g>
	<g>
		<path class="st6" d="M40.9,217.6c1.1,2.7-0.1,5.8-2.8,7.1c-2.8,1.3-6.1,0.2-7.5-2.6"/>
		<g>
			<polygon points="39.7,219.3 40.1,219.5 40.9,217.7 42.6,218.7 42.8,218.3 40.7,217.2 			"/>
		</g>
	</g>
</g>
<g>
	<rect x="49" y="209" class="st7" width="8.4" height="9.6"/>
	<text transform="matrix(1 0 0 1 49.043 217.6404)" class="st8 st5">1</text>
	<circle class="st9" cx="52.8" cy="213.4" r="7.4"/>
</g>
<g>
	<rect x="236.7" y="209" class="st7" width="8.4" height="9.6"/>
	<text transform="matrix(1 0 0 1 236.7499 217.6404)" class="st8 st5">2</text>
	<circle class="st9" cx="240.1" cy="213.4" r="7.4"/>
</g>
<text transform="matrix(1 0 0 1 373.4267 218.1511)" class="st4 st5">Kenarları makasla kesin.</text>
<g>
	<rect x="358.7" y="209" class="st7" width="8.4" height="9.6"/>
	<text transform="matrix(1 0 0 1 358.7175 217.6404)" class="st8 st5">3</text>
	<circle class="st9" cx="362" cy="213.4" r="7.4"/>
</g>
<g>
	<rect x="49" y="233" class="st7" width="8.4" height="9.6"/>
	<text transform="matrix(1 0 0 1 49.043 241.6242)" class="st8 st5">4</text>
	<circle class="st9" cx="52.8" cy="237.4" r="7.4"/>
</g>
<text transform="matrix(1 0 0 1 336.786 241.6239)" class="st4 st5">İstenilen yere asın.</text>
<g>
	<rect x="321.5" y="233" class="st7" width="8.4" height="9.6"/>
	<text transform="matrix(1 0 0 1 321.4647 241.6242)" class="st8 st5">5</text>
	<circle class="st9" cx="325.2" cy="237.4" r="7.4"/>
</g>
<g>
	<path id="rect3914-6" class="st10" d="M26.8,609.8H74c0.7,0,1.3,0.4,1.3,1v13.8c0,0.5-0.6,1-1.3,1H26.8c-0.7,0-1.3-0.4-1.3-1v-13.8
		C25.5,610.3,26.1,609.8,26.8,609.8z"/>
	<path id="path11-9-3-7" class="st11" d="M39.2,611.4c1.9,1.5,3.1,3.8,3.1,6.5c0,2.4-1,4.6-2.6,6.1h34.2v-12.6H39.2z"/>
	<g id="g3965" transform="translate(-413.44427,-9.1388291)">
		<path id="path17-8-7-0" class="st12" d="M462.2,621.9c0.2,0,0.5,0,0.6,0.1c0.2,0.1,0.3,0.2,0.4,0.3c0.1,0.1,0.2,0.3,0.2,0.4
			c0.1,0.2,0.1,0.3,0.1,0.5c0,0.2,0,0.3-0.1,0.5c-0.1,0.2-0.1,0.3-0.2,0.4c-0.1,0.1-0.3,0.2-0.4,0.3c-0.2,0.1-0.4,0.1-0.6,0.1h-0.9
			v1.4h-0.9v-4H462.2L462.2,621.9z M461.9,623.8c0.1,0,0.2,0,0.3,0c0.1,0,0.2,0,0.2-0.1c0.1,0,0.1-0.1,0.2-0.2s0.1-0.2,0.1-0.3
			c0-0.1,0-0.2-0.1-0.3c0-0.1-0.1-0.1-0.2-0.2c-0.1,0-0.2-0.1-0.2-0.1c-0.1,0-0.2,0-0.3,0h-0.7v1.2L461.9,623.8L461.9,623.8
			L461.9,623.8z"/>
		<path id="path19-2-5-5" class="st12" d="M467.2,625.6c-0.3,0.3-0.7,0.4-1.2,0.4c-0.5,0-1-0.1-1.3-0.4c-0.3-0.3-0.4-0.7-0.4-1.2
			v-2.5h0.9v2.5c0,0.1,0,0.2,0,0.3c0,0.1,0.1,0.2,0.1,0.3c0.1,0.1,0.1,0.1,0.2,0.2s0.2,0.1,0.4,0.1c0.3,0,0.5-0.1,0.6-0.2
			c0.1-0.1,0.2-0.4,0.2-0.7v-2.5h0.9v2.5C467.7,624.9,467.5,625.3,467.2,625.6L467.2,625.6z"/>
		<path id="path21-0-4-6" class="st12" d="M470.6,621.9c0.2,0,0.4,0,0.5,0.1c0.2,0,0.3,0.1,0.4,0.2c0.1,0.1,0.2,0.2,0.3,0.3
			c0.1,0.1,0.1,0.3,0.1,0.5c0,0.2,0,0.4-0.1,0.5c-0.1,0.1-0.2,0.2-0.4,0.3c0.2,0.1,0.4,0.2,0.5,0.4c0.1,0.2,0.2,0.4,0.2,0.6
			c0,0.2,0,0.4-0.1,0.5c-0.1,0.1-0.2,0.3-0.3,0.4c-0.1,0.1-0.3,0.2-0.5,0.2c-0.2,0-0.3,0.1-0.5,0.1h-1.9v-4H470.6z M470.5,623.5
			c0.2,0,0.3,0,0.4-0.1c0.1-0.1,0.2-0.2,0.2-0.4c0-0.1,0-0.2-0.1-0.2c0-0.1-0.1-0.1-0.1-0.1c-0.1,0-0.1-0.1-0.2-0.1
			c-0.1,0-0.1,0-0.2,0h-0.8v0.9H470.5z M470.6,625.2c0.1,0,0.2,0,0.2,0c0.1,0,0.1,0,0.2-0.1c0.1,0,0.1-0.1,0.1-0.2
			c0-0.1,0.1-0.2,0.1-0.3c0-0.2-0.1-0.4-0.2-0.4c-0.1-0.1-0.3-0.1-0.5-0.1h-1v1.1H470.6L470.6,625.2z"/>
		<path id="path23-9-1-0" class="st12" d="M473.8,621.9v3.3h1.9v0.7H473v-4H473.8z"/>
		<path id="path25-4-8-8" class="st12" d="M477.4,621.9v4h-0.9v-4H477.4z"/>
		<path id="path27-9-0-7" class="st12" d="M481,622.9c-0.1-0.1-0.1-0.2-0.2-0.2c-0.1-0.1-0.2-0.1-0.3-0.1c-0.1,0-0.2-0.1-0.3-0.1
			c-0.2,0-0.4,0-0.5,0.1c-0.1,0.1-0.3,0.2-0.3,0.3c-0.1,0.1-0.1,0.3-0.2,0.4c0,0.2-0.1,0.3-0.1,0.5c0,0.2,0,0.3,0.1,0.5
			s0.1,0.3,0.2,0.4c0.1,0.1,0.2,0.2,0.3,0.3c0.1,0.1,0.3,0.1,0.5,0.1c0.3,0,0.5-0.1,0.6-0.2c0.1-0.2,0.2-0.4,0.3-0.7h0.8
			c0,0.3-0.1,0.5-0.2,0.7c-0.1,0.2-0.2,0.4-0.4,0.5s-0.3,0.3-0.5,0.3c-0.2,0.1-0.4,0.1-0.7,0.1c-0.3,0-0.6-0.1-0.8-0.2
			c-0.2-0.1-0.4-0.3-0.6-0.4c-0.2-0.2-0.3-0.4-0.4-0.7c-0.1-0.3-0.1-0.5-0.1-0.8c0-0.3,0-0.6,0.1-0.8c0.1-0.3,0.2-0.5,0.4-0.7
			c0.2-0.2,0.4-0.3,0.6-0.4c0.2-0.1,0.5-0.2,0.8-0.2c0.2,0,0.4,0,0.6,0.1c0.2,0.1,0.4,0.2,0.5,0.3c0.2,0.1,0.3,0.3,0.4,0.5
			c0.1,0.2,0.2,0.4,0.2,0.6h-0.8C481.1,623.1,481,623,481,622.9z"/>
		<path id="path29-7-0-4" class="st12" d="M462.1,627.5c0.3,0,0.5,0,0.7,0.1c0.2,0.1,0.4,0.2,0.6,0.4c0.2,0.2,0.3,0.4,0.4,0.6
			c0.1,0.2,0.1,0.5,0.1,0.9c0,0.3,0,0.6-0.1,0.8c-0.1,0.2-0.2,0.5-0.3,0.6c-0.2,0.2-0.3,0.3-0.6,0.4c-0.2,0.1-0.5,0.2-0.8,0.2h-1.7
			v-4H462.1z M462,630.8c0.1,0,0.2,0,0.4-0.1c0.1,0,0.2-0.1,0.3-0.2c0.1-0.1,0.2-0.2,0.2-0.4c0.1-0.2,0.1-0.3,0.1-0.6
			c0-0.2,0-0.4-0.1-0.5c0-0.2-0.1-0.3-0.2-0.4c-0.1-0.1-0.2-0.2-0.4-0.3c-0.1-0.1-0.3-0.1-0.5-0.1h-0.6v2.5L462,630.8L462,630.8
			L462,630.8z"/>
		<path id="path31-9-8-2" class="st12" d="M464.7,628.7c0.1-0.3,0.2-0.5,0.4-0.7c0.2-0.2,0.4-0.3,0.6-0.4c0.2-0.1,0.5-0.2,0.8-0.2
			c0.3,0,0.6,0.1,0.8,0.2c0.2,0.1,0.4,0.3,0.6,0.4c0.2,0.2,0.3,0.4,0.4,0.7c0.1,0.3,0.1,0.5,0.1,0.8c0,0.3,0,0.6-0.1,0.8
			c-0.1,0.3-0.2,0.5-0.4,0.7c-0.2,0.2-0.4,0.3-0.6,0.4c-0.2,0.1-0.5,0.2-0.8,0.2c-0.3,0-0.6-0.1-0.8-0.2c-0.2-0.1-0.4-0.3-0.6-0.4
			c-0.2-0.2-0.3-0.4-0.4-0.7c-0.1-0.3-0.1-0.5-0.1-0.8C464.6,629.2,464.6,628.9,464.7,628.7z M465.5,630c0,0.2,0.1,0.3,0.2,0.4
			c0.1,0.1,0.2,0.2,0.3,0.3c0.1,0.1,0.3,0.1,0.5,0.1c0.2,0,0.4,0,0.5-0.1c0.1-0.1,0.3-0.2,0.3-0.3c0.1-0.1,0.1-0.3,0.2-0.4
			c0-0.2,0.1-0.3,0.1-0.5c0-0.2,0-0.3-0.1-0.5c0-0.2-0.1-0.3-0.2-0.4c-0.1-0.1-0.2-0.2-0.3-0.3c-0.1-0.1-0.3-0.1-0.5-0.1
			c-0.2,0-0.4,0-0.5,0.1c-0.1,0.1-0.2,0.2-0.3,0.3c-0.1,0.1-0.1,0.3-0.2,0.4c0,0.2-0.1,0.3-0.1,0.5
			C465.5,629.7,465.5,629.8,465.5,630z"/>
		<path id="path33-4-9-1" class="st12" d="M470.6,627.5l0.9,2.8h0l0.9-2.8h1.2v4h-0.8v-2.8h0l-1,2.8h-0.7l-1-2.8h0v2.8h-0.8v-4
			H470.6L470.6,627.5z"/>
		<path id="path35-8-7-3" class="st12" d="M476.8,627.5l1.5,4h-0.9l-0.3-0.9h-1.5l-0.3,0.9h-0.9l1.5-4H476.8L476.8,627.5z
			 M476.8,629.9l-0.5-1.5h0l-0.5,1.5H476.8L476.8,629.9L476.8,629.9z"/>
		<path id="path37-6-1-3" class="st12" d="M479.8,627.5v4h-0.9v-4H479.8z"/>
		<path id="path39-3-0-1" class="st12" d="M481.7,627.5l1.7,2.7h0v-2.7h0.8v4h-0.9l-1.7-2.7h0v2.7h-0.8v-4H481.7z"/>
	</g>
	<path id="path3912-1-5" class="st11" d="M33.6,610.6c-2.9,0-5.4,1.6-6.6,4c-0.1,0.1-0.2,0.2-0.2,0.3c-0.4,0.9-0.6,1.8-0.6,2.8
		c0,3.9,3.3,7.1,7.4,7.1c4.1,0,7.4-3.2,7.4-7.1C41,613.8,37.7,610.6,33.6,610.6z M33.6,611.3c3.7,0,6.6,2.9,6.6,6.4
		c0,0.2,0,0.4,0,0.6l-12.4-3.7C28.9,612.7,31.1,611.3,33.6,611.3z M27.5,615.4l12.6,3.7c-0.7,2.8-3.3,5-6.5,5
		c-3.7,0-6.6-2.9-6.6-6.4C27,616.9,27.2,616.1,27.5,615.4z"/>
	<path id="path27-9-4-1-6" class="st11" d="M35.4,615.5c-0.1-0.2-0.2-0.3-0.4-0.5c-0.2-0.1-0.4-0.2-0.6-0.3
		c-0.2-0.1-0.4-0.1-0.7-0.1c-0.4,0-0.8,0.1-1.1,0.2c-0.3,0.2-0.5,0.4-0.7,0.7c-0.2,0.3-0.3,0.6-0.4,0.9c-0.1,0.3-0.1,0.7-0.1,1.1
		c0,0.4,0,0.7,0.1,1c0.1,0.3,0.2,0.6,0.4,0.9c0.2,0.3,0.4,0.5,0.7,0.6c0.3,0.2,0.6,0.2,1.1,0.2c0.6,0,1-0.2,1.3-0.5
		c0.3-0.3,0.5-0.8,0.6-1.4h1.8c0,0.5-0.2,1-0.4,1.4c-0.2,0.4-0.5,0.8-0.8,1.1c-0.3,0.3-0.7,0.5-1.1,0.7c-0.4,0.2-0.9,0.2-1.4,0.2
		c-0.6,0-1.2-0.1-1.7-0.3c-0.5-0.2-0.9-0.5-1.3-0.9c-0.4-0.4-0.6-0.9-0.8-1.4c-0.2-0.5-0.3-1.1-0.3-1.7c0-0.6,0.1-1.2,0.3-1.8
		c0.2-0.5,0.5-1,0.8-1.4c0.4-0.4,0.8-0.7,1.3-0.9c0.5-0.2,1.1-0.3,1.7-0.3c0.5,0,0.9,0.1,1.3,0.2c0.4,0.1,0.8,0.3,1.1,0.6
		c0.3,0.3,0.6,0.6,0.8,1c0.2,0.4,0.3,0.8,0.4,1.3h-1.8C35.5,615.9,35.5,615.7,35.4,615.5z"/>
</g>
<g>
	<path d="M280.3,506.7v-2.4c0-0.5,0-0.8,0.1-1.1c0-0.2,0.1-0.4,0.3-0.6c0.1-0.2,0.3-0.3,0.5-0.5c0.2-0.1,0.4-0.2,0.7-0.2
		c0.3,0,0.5,0.1,0.8,0.2c0.2,0.2,0.4,0.4,0.5,0.6c0.1-0.4,0.3-0.7,0.6-0.9c0.3-0.2,0.6-0.3,0.9-0.3c0.3,0,0.5,0.1,0.8,0.2
		s0.5,0.3,0.6,0.5s0.3,0.5,0.3,0.8c0,0.2,0,0.7,0,1.5v2.1H280.3z M281.3,505.5h1.4v-0.8c0-0.5,0-0.8,0-0.9c0-0.2-0.1-0.4-0.2-0.5
		s-0.3-0.2-0.5-0.2c-0.2,0-0.3,0.1-0.5,0.2c-0.1,0.1-0.2,0.3-0.2,0.5c0,0.1,0,0.5,0,1.1V505.5z M283.8,505.5h1.6v-1.1
		c0-0.4,0-0.7,0-0.8c0-0.2-0.1-0.3-0.2-0.4c-0.1-0.1-0.3-0.2-0.5-0.2c-0.2,0-0.3,0-0.5,0.1c-0.1,0.1-0.2,0.2-0.3,0.4
		s-0.1,0.5-0.1,1.1V505.5z"/>
</g>
<g>
	<path d="M309.2,340.5v-1.3l1.4-0.5v-2.4l-1.4-0.5v-1.3l6.1,2.4v1.3L309.2,340.5z M311.6,338.2l2.3-0.8l-2.3-0.8V338.2z"/>
</g>
<g>
	<path d="M285.9,334.3v1.3l-1.4,0.5v2.4l1.4,0.5v1.3l-6.1-2.4v-1.3L285.9,334.3z M283.5,336.6l-2.3,0.8l2.3,0.8V336.6z"/>
</g>
<circle class="st0" cx="283.5" cy="113.5" r="7.1"/>
<circle class="st0" cx="311.8" cy="113.5" r="7.1"/>
<g>
	<path d="M309.2,116.5v-1.3l1.4-0.5v-2.4l-1.4-0.5v-1.3l6.1,2.4v1.3L309.2,116.5z M311.6,114.3l2.3-0.8l-2.3-0.8V114.3z"/>
</g>
<g>
	<path d="M285.9,110.4v1.3l-1.4,0.5v2.4l1.4,0.5v1.3l-6.1-2.4v-1.3L285.9,110.4z M283.5,112.7l-2.3,0.8l2.3,0.8V112.7z"/>
</g>
<g>
	<path d="M315,502.2v2.4c0,0.5,0,0.8-0.1,1.1c0,0.2-0.1,0.4-0.3,0.6c-0.1,0.2-0.3,0.3-0.5,0.5c-0.2,0.1-0.4,0.2-0.7,0.2
		c-0.3,0-0.5-0.1-0.8-0.2c-0.2-0.2-0.4-0.4-0.5-0.6c-0.1,0.4-0.3,0.7-0.6,0.9c-0.3,0.2-0.6,0.3-0.9,0.3c-0.3,0-0.5-0.1-0.8-0.2
		s-0.5-0.3-0.6-0.5s-0.3-0.5-0.3-0.8c0-0.2,0-0.7,0-1.5v-2.1H315z M313.9,503.4h-1.4v0.8c0,0.5,0,0.8,0,0.9c0,0.2,0.1,0.4,0.2,0.5
		s0.3,0.2,0.5,0.2c0.2,0,0.3-0.1,0.5-0.2c0.1-0.1,0.2-0.3,0.2-0.5c0-0.1,0-0.5,0-1.1V503.4z M311.5,503.4h-1.6v1.1
		c0,0.4,0,0.7,0,0.8c0,0.2,0.1,0.3,0.2,0.4c0.1,0.1,0.3,0.2,0.5,0.2c0.2,0,0.3,0,0.5-0.1c0.1-0.1,0.2-0.2,0.3-0.4s0.1-0.5,0.1-1.1
		V503.4z"/>
</g>
<g>
	<path d="M280.3,730.7v-2.4c0-0.5,0-0.8,0.1-1.1c0-0.2,0.1-0.4,0.3-0.6c0.1-0.2,0.3-0.3,0.5-0.5c0.2-0.1,0.4-0.2,0.7-0.2
		c0.3,0,0.5,0.1,0.8,0.2c0.2,0.2,0.4,0.4,0.5,0.6c0.1-0.4,0.3-0.7,0.6-0.9c0.3-0.2,0.6-0.3,0.9-0.3c0.3,0,0.5,0.1,0.8,0.2
		s0.5,0.3,0.6,0.5s0.3,0.5,0.3,0.8c0,0.2,0,0.7,0,1.5v2.1H280.3z M281.3,729.4h1.4v-0.8c0-0.5,0-0.8,0-0.9c0-0.2-0.1-0.4-0.2-0.5
		s-0.3-0.2-0.5-0.2c-0.2,0-0.3,0.1-0.5,0.2c-0.1,0.1-0.2,0.3-0.2,0.5c0,0.1,0,0.5,0,1.1V729.4z M283.8,729.4h1.6v-1.1
		c0-0.4,0-0.7,0-0.8c0-0.2-0.1-0.3-0.2-0.4c-0.1-0.1-0.3-0.2-0.5-0.2c-0.2,0-0.3,0-0.5,0.1c-0.1,0.1-0.2,0.2-0.3,0.4
		s-0.1,0.5-0.1,1.1V729.4z"/>
</g>
<g>
	<path d="M315,726.2v2.4c0,0.5,0,0.8-0.1,1.1c0,0.2-0.1,0.4-0.3,0.6c-0.1,0.2-0.3,0.3-0.5,0.5c-0.2,0.1-0.4,0.2-0.7,0.2
		c-0.3,0-0.5-0.1-0.8-0.2c-0.2-0.2-0.4-0.4-0.5-0.6c-0.1,0.4-0.3,0.7-0.6,0.9c-0.3,0.2-0.6,0.3-0.9,0.3c-0.3,0-0.5-0.1-0.8-0.2
		s-0.5-0.3-0.6-0.5s-0.3-0.5-0.3-0.8c0-0.2,0-0.7,0-1.5v-2.1H315z M313.9,727.4h-1.4v0.8c0,0.5,0,0.8,0,0.9c0,0.2,0.1,0.4,0.2,0.5
		s0.3,0.2,0.5,0.2c0.2,0,0.3-0.1,0.5-0.2c0.1-0.1,0.2-0.3,0.2-0.5c0-0.1,0-0.5,0-1.1V727.4z M311.5,727.4h-1.6v1.1
		c0,0.4,0,0.7,0,0.8c0,0.2,0.1,0.3,0.2,0.4c0.1,0.1,0.3,0.2,0.5,0.2c0.2,0,0.3,0,0.5-0.1c0.1-0.1,0.2-0.2,0.3-0.4s0.1-0.5,0.1-1.1
		V727.4z"/>
</g>
<rect x="293" y="601.2" class="st12" width="6.8" height="34.2"/>
<g>
	<rect x="82.1" y="603.9" class="st7" width="486.5" height="30.3"/>
	<text transform="matrix(1 0 0 1 82.1491 610.2679)"><tspan x="0" y="0" class="st13 st14 st15">Bu kit, İyi Tasarım İzmir_6 bünyesinde Yaya Derneği tarafından gerçekleştirilen ‘Yayalar İçin Taktiksel Müdahaleler’ atölyesinde </tspan><tspan x="0" y="10.2" class="st13 st14 st15">kolektif olarak üretilmiştir. Tüm hakları açıktır, istenildiği gibi çoğaltılabilir / düzenlenebilir / yayılabilir. </tspan><tspan x="0" y="20.4" class="st13 st14 st15">Fotoğraflarınızı </tspan><tspan x="59.3" y="20.4" class="st13 st16 st15">info@yayadernegi.org </tspan><tspan x="145.7" y="20.4" class="st13 st14 st15">adresine bekliyoruz! </tspan><tspan x="223" y="20.4" class="st13 st16 st15">www.yayadernegi.org </tspan></text>
</g>
<rect x="45.3" y="47.3" class="st7" width="226.8" height="132.3"/>
<text transform="matrix(1 0 0 1 45.3129 59.2643)"><tspan x="0" y="0" class="st16 st17">Lorem ipsum dolor sit amet, con</tspan><tspan x="205.6" y="0" class="st16 st17">-</tspan><tspan x="0" y="17" class="st16 st17">sectetuer adipiscing elit, sed diam </tspan><tspan x="0" y="34" class="st16 st17">nonummy nibh euismod tincidunt </tspan><tspan x="0" y="51" class="st16 st17">ut laoreet dolore magna aliquam </tspan><tspan x="0" y="68" class="st16 st17">erat volutpat. Ut wisi enim ad </tspan><tspan x="0" y="85" class="st16 st17">minim veniam, quis nostrud exerci </tspan><tspan x="0" y="102" class="st16 st17">tation ullamcorper suscipit lobortis </tspan><tspan x="0" y="119.1" class="st16 st17">nisl ut aliquip ex ea commodo </tspan></text>
<rect x="45.3" y="271.3" class="st7" width="226.8" height="132.3"/>
<text transform="matrix(1 0 0 1 45.3129 283.243)"><tspan x="0" y="0" class="st16 st17">Lorem ipsum dolor sit amet, con</tspan><tspan x="205.6" y="0" class="st16 st17">-</tspan><tspan x="0" y="17" class="st16 st17">sectetuer adipiscing elit, sed diam </tspan><tspan x="0" y="34" class="st16 st17">nonummy nibh euismod tincidunt </tspan><tspan x="0" y="51" class="st16 st17">ut laoreet dolore magna aliquam </tspan><tspan x="0" y="68" class="st16 st17">erat volutpat. Ut wisi enim ad </tspan><tspan x="0" y="85" class="st16 st17">minim veniam, quis nostrud exerci </tspan><tspan x="0" y="102" class="st16 st17">tation ullamcorper suscipit lobortis </tspan><tspan x="0" y="119.1" class="st16 st17">nisl ut aliquip ex ea commodo </tspan></text>
<rect x="45.3" y="438.3" class="st7" width="226.8" height="132.3"/>
<text transform="matrix(1 0 0 1 45.3129 450.2222)"><tspan x="0" y="0" class="st16 st17">Lorem ipsum dolor sit amet, con</tspan><tspan x="205.6" y="0" class="st16 st17">-</tspan><tspan x="0" y="17" class="st16 st17">sectetuer adipiscing elit, sed diam </tspan><tspan x="0" y="34" class="st16 st17">nonummy nibh euismod tincidunt </tspan><tspan x="0" y="51" class="st16 st17">ut laoreet dolore magna aliquam </tspan><tspan x="0" y="68" class="st16 st17">erat volutpat. Ut wisi enim ad </tspan><tspan x="0" y="85" class="st16 st17">minim veniam, quis nostrud exerci </tspan><tspan x="0" y="102" class="st16 st17">tation ullamcorper suscipit lobortis </tspan><tspan x="0" y="119.1" class="st16 st17">nisl ut aliquip ex ea commodo </tspan></text>
<rect x="45.3" y="663.1" class="st7" width="226.8" height="132.3"/>
<text transform="matrix(1 0 0 1 45.3129 674.9865)"><tspan x="0" y="0" class="st16 st17">Lorem ipsum dolor sit amet, con</tspan><tspan x="205.6" y="0" class="st16 st17">-</tspan><tspan x="0" y="17" class="st16 st17">sectetuer adipiscing elit, sed diam </tspan><tspan x="0" y="34" class="st16 st17">nonummy nibh euismod tincidunt </tspan><tspan x="0" y="51" class="st16 st17">ut laoreet dolore magna aliquam </tspan><tspan x="0" y="68" class="st16 st17">erat volutpat. Ut wisi enim ad </tspan><tspan x="0" y="85" class="st16 st17">minim veniam, quis nostrud exerci </tspan><tspan x="0" y="102" class="st16 st17">tation ullamcorper suscipit lobortis </tspan><tspan x="0" y="119.1" class="st16 st17">nisl ut aliquip ex ea commodo </tspan></text>
<rect x="323.1" y="47.3" class="st7" width="226.8" height="132.3"/>
<text transform="matrix(1 0 0 1 338.8086 59.2643)"><tspan x="0" y="0" class="st16 st17">Lorem ipsum dolor sit amet, con</tspan><tspan x="205.6" y="0" class="st16 st17">-</tspan><tspan x="-6.9" y="17" class="st16 st17">sectetuer adipiscing elit, sed diam </tspan><tspan x="-1.8" y="34" class="st16 st17">nonummy nibh euismod tincidunt </tspan><tspan x="4.5" y="51" class="st16 st17">ut laoreet dolore magna aliquam </tspan><tspan x="25.5" y="68" class="st16 st17">erat volutpat. Ut wisi enim ad </tspan><tspan x="-7.9" y="85" class="st16 st17">minim veniam, quis nostrud exerci </tspan><tspan x="-12.1" y="102" class="st16 st17">tation ullamcorper suscipit lobortis </tspan><tspan x="21.1" y="119.1" class="st16 st17">nisl ut aliquip ex ea commodo </tspan></text>
<rect x="323.1" y="271.3" class="st7" width="226.8" height="132.3"/>
<text transform="matrix(1 0 0 1 338.8086 283.243)"><tspan x="0" y="0" class="st16 st17">Lorem ipsum dolor sit amet, con</tspan><tspan x="205.6" y="0" class="st16 st17">-</tspan><tspan x="-6.9" y="17" class="st16 st17">sectetuer adipiscing elit, sed diam </tspan><tspan x="-1.8" y="34" class="st16 st17">nonummy nibh euismod tincidunt </tspan><tspan x="4.5" y="51" class="st16 st17">ut laoreet dolore magna aliquam </tspan><tspan x="25.5" y="68" class="st16 st17">erat volutpat. Ut wisi enim ad </tspan><tspan x="-7.9" y="85" class="st16 st17">minim veniam, quis nostrud exerci </tspan><tspan x="-12.1" y="102" class="st16 st17">tation ullamcorper suscipit lobortis </tspan><tspan x="21.1" y="119.1" class="st16 st17">nisl ut aliquip ex ea commodo </tspan></text>
<rect x="323.1" y="438.3" class="st7" width="226.8" height="132.3"/>
<text transform="matrix(1 0 0 1 338.8086 450.2222)"><tspan x="0" y="0" class="st16 st17">Lorem ipsum dolor sit amet, con</tspan><tspan x="205.6" y="0" class="st16 st17">-</tspan><tspan x="-6.9" y="17" class="st16 st17">sectetuer adipiscing elit, sed diam </tspan><tspan x="-1.8" y="34" class="st16 st17">nonummy nibh euismod tincidunt </tspan><tspan x="4.5" y="51" class="st16 st17">ut laoreet dolore magna aliquam </tspan><tspan x="25.5" y="68" class="st16 st17">erat volutpat. Ut wisi enim ad </tspan><tspan x="-7.9" y="85" class="st16 st17">minim veniam, quis nostrud exerci </tspan><tspan x="-12.1" y="102" class="st16 st17">tation ullamcorper suscipit lobortis </tspan><tspan x="21.1" y="119.1" class="st16 st17">nisl ut aliquip ex ea commodo </tspan></text>
<rect x="323.1" y="663.1" class="st7" width="226.8" height="132.3"/>
<text transform="matrix(1 0 0 1 338.8086 674.9865)"><tspan x="0" y="0" class="st16 st17">Lorem ipsum dolor sit amet, con</tspan><tspan x="205.6" y="0" class="st16 st17">-</tspan><tspan x="-6.9" y="17" class="st16 st17">sectetuer adipiscing elit, sed diam </tspan><tspan x="-1.8" y="34" class="st16 st17">nonummy nibh euismod tincidunt </tspan><tspan x="4.5" y="51" class="st16 st17">ut laoreet dolore magna aliquam </tspan><tspan x="25.5" y="68" class="st16 st17">erat volutpat. Ut wisi enim ad </tspan><tspan x="-7.9" y="85" class="st16 st17">minim veniam, quis nostrud exerci </tspan><tspan x="-12.1" y="102" class="st16 st17">tation ullamcorper suscipit lobortis </tspan><tspan x="21.1" y="119.1" class="st16 st17">nisl ut aliquip ex ea commodo </tspan></text>
</svg>
